<svg width="44" height="42" viewBox="0 0 44 42" fill="none" xmlns="http://www.w3.org/2000/svg">
<path d="M38.7989 20.0928L22 36.6432L5.20118 20.0928C4.90106 19.7964 4.49814 19.6305 4.07857 19.6305C3.65901 19.6305 3.25609 19.7964 2.95596 20.0928C2.81064 20.2367 2.69518 20.4084 2.61636 20.598C2.53755 20.7876 2.49695 20.9912 2.49695 21.1968C2.49695 21.4024 2.53755 21.606 2.61636 21.7956C2.69518 21.9852 2.81064 22.1569 2.95596 22.3008L20.827 39.9112C21.1408 40.2204 21.5618 40.3934 22 40.3934C22.4383 40.3934 22.8592 40.2204 23.173 39.9112L41.0441 22.3042C41.1904 22.1602 41.3068 21.988 41.3862 21.7978C41.4656 21.6076 41.5065 21.4033 41.5065 21.1968C41.5065 20.9903 41.4656 20.786 41.3862 20.5958C41.3068 20.4056 41.1904 20.2334 41.0441 20.0894C40.7439 19.793 40.341 19.6271 39.9215 19.6271C39.5019 19.6271 39.099 19.793 38.7989 20.0894L38.7989 20.0928Z" fill="white" stroke="white"/>
<path d="M38.7989 7.46562L22 24.0161L5.20118 7.46562C4.90106 7.16929 4.49814 7.0034 4.07857 7.0034C3.65901 7.0034 3.25609 7.16929 2.95596 7.46562C2.81064 7.60953 2.69518 7.78131 2.61636 7.97088C2.53755 8.16046 2.49695 8.36403 2.49695 8.56966C2.49695 8.7753 2.53755 8.97886 2.61636 9.16844C2.69518 9.35802 2.81064 9.52979 2.95596 9.67371L20.827 27.2841C21.1408 27.5932 21.5618 27.7663 22 27.7663C22.4383 27.7663 22.8592 27.5932 23.173 27.2841L41.0441 9.67711C41.1904 9.53308 41.3068 9.36089 41.3862 9.17068C41.4656 8.98048 41.5065 8.77612 41.5065 8.56966C41.5065 8.36321 41.4656 8.15885 41.3862 7.96865C41.3068 7.77844 41.1904 7.60624 41.0441 7.46222C40.7439 7.1659 40.341 7 39.9215 7C39.5019 7 39.099 7.1659 38.7989 7.46222L38.7989 7.46562Z" fill="white" stroke="white"/>
</svg>
